<?xml version="1.0" encoding="UTF-8" standalone="no"?>
<svg xmlns:svg="http://www.w3.org/2000/svg" xmlns="http://www.w3.org/2000/svg" version="1.1" width="1200px" height="720px" viewBox="0 0 1200 720" xml:space="preserve">
	<defs>
	</defs>
	<rect id="paper" x="0" y="0" width="1200" height="720" style="stroke :none; fill :#FFFFFF" />
	<g id="Grid" transform="translate(60,60)" style="stroke :#000000; stroke-width :2; stroke-linecap :square; stroke-linejoin :miter;  fill :none;" >
		<path d="M 0,0 L 60,0 M 1020,0 L 1080,0 M 0,60 L 120,60 M 720,60 L 1080,60 M 0,120 L 120,120 M 720,120 L 1080,120 M 0,180 L 1080,180 M 0,240 L 1080 240  M 0,300 L 1080 300  M 0,360 L 1080 360 M 0,420 L 1080 420" />
		<path d="M 0,0 L 0,420 M 60,0 L 60,420 M 120,60 L 120,420 M 180,180 L 180,420 M 240,180 L 240,420 M 300,180 L 300,420 M 360,180 L 360,420 M 420,180 L 420,420 M 480,180 L 480,420 M 540,180 L 540,420 M 600,180 L 600,420 M 660,180 L 660,420 M 720,60 L 720,420 M 780,60 L 780,420 M 840,60 L 840,420 M 900,60 L 900,420 M 960,60 L 960,420 M 1020,0 L 1020,420 M 1080,0 L 1080,420" />
		<path transform="translate(120,480)" d="M 0,60 L  0,0 900,0 900,120 0,120 0,60 900,60 M 60,0 L 60,120 M 120,0 L 120,120 M 180,0 L 180,120 M 240,0 L 240,120 M 300,0 L 300,120 M 360,0 L 360,120 M 420,0 L 420,120 M 480,0 L 480,120 M 540,0 L 540,120 M 600,0 L 600,120 M 660,0 L 660,120 M 720,0 L 720,120 M 780,0 L 780,120 M 840,0 L 840,120"  />
	</g>
</svg>
